<svg width="70" height="70" viewBox="0 0 70 70" fill="none" xmlns="http://www.w3.org/2000/svg">
<path d="M25.4311 4.01141C26.4374 2.75357 28.2728 2.54963 29.5306 3.55591L36.7981 9.36985C37.0253 9.54718 37.2195 9.75272 37.3794 9.97809C37.5016 10.1501 37.6034 10.3333 37.6844 10.5239C37.8177 10.8378 37.8944 11.1719 37.9128 11.5097C37.9251 11.7357 37.9114 11.9638 37.8702 12.1893C37.7985 12.5857 37.6436 12.972 37.4024 13.3214L31.5936 22.0345C30.7002 23.3748 28.8892 23.737 27.5489 22.8434C26.2086 21.9499 25.8465 20.139 26.74 18.7987L28.9407 15.4977C21.3359 17.8581 15.6334 24.5441 14.7138 32.6772C14.6279 33.437 14.2573 34.0955 13.7205 34.5584L12.9594 35.4419C12.6662 35.7855 12.541 36.2157 12.5752 36.633C12.6074 37.0504 12.799 37.4553 13.1428 37.7484L14.398 38.8077C14.9659 39.2922 15.3488 39.993 15.4127 40.796C15.5404 42.4016 14.3422 43.8066 12.7366 43.9343C11.1309 44.0621 9.72586 42.8639 9.59823 41.2583C9.53438 40.455 9.80225 39.7025 10.2866 39.1347L11.3586 37.8904C11.6518 37.5465 11.7771 37.1163 11.7429 36.699C11.7107 36.2816 11.5191 35.8767 11.1753 35.5836L10.2893 34.8358C9.4883 34.3435 8.95534 33.4795 8.90292 32.5106C8.88397 32.2432 8.90173 31.9815 8.95195 31.7307C10.2672 21.1555 17.8681 12.5331 27.8997 9.72145L25.8866 8.11099C24.6288 7.10471 24.4248 5.26925 25.4311 4.01141Z" fill="white"/>
<path d="M41.0593 54.5026L43.2602 51.2012C44.1536 49.861 43.7913 48.05 42.4511 47.1567C41.1109 46.263 39.2999 46.6252 38.4066 47.9655L32.5977 56.6784C32.3574 57.0264 32.2028 57.4111 32.1305 57.8057C32.0888 58.0344 32.0748 58.2657 32.0876 58.4949L32.0899 58.5337C32.1147 58.8971 32.2057 59.2422 32.3516 59.5569C32.4286 59.724 32.5219 59.8847 32.6313 60.0364C32.7891 60.256 32.9795 60.4564 33.2015 60.6299L40.4695 66.444C41.7272 67.4502 43.5626 67.2464 44.5689 65.9887C45.5751 64.7308 45.3713 62.8953 44.1133 61.889L42.1002 60.2785C53.148 57.1815 61.2499 47.0371 61.2499 35C61.2499 33.3891 59.9441 32.0833 58.3332 32.0833C56.7224 32.0833 55.4166 33.3891 55.4166 35C55.4166 44.1659 49.3764 51.9213 41.0593 54.5026Z" fill="white"/>
<path d="M39.6667 21.0002C40.9553 21.9667 41.2166 23.7948 40.25 25.0835L35 32.0836H40.8334C41.9382 32.0836 42.948 32.7078 43.442 33.6957C43.9361 34.6838 43.8297 35.8662 43.1667 36.7503L34.4167 48.417C33.4501 49.7055 31.622 49.9666 30.3334 49.0003C29.0447 48.0337 28.7835 46.2055 29.75 44.917L35 37.917H29.1667C28.0619 37.917 27.052 37.2928 26.5579 36.3046C26.0639 35.3165 26.1705 34.134 26.8333 33.2503L35.5834 21.5835C36.55 20.2948 38.3781 20.0337 39.6667 21.0002Z" fill="white"/>
</svg>
