<svg width="96" height="96" viewBox="0 0 96 96" fill="none" xmlns="http://www.w3.org/2000/svg">
<circle cx="48" cy="48" r="48" fill="#FF5640"/>
<path d="M38.4311 17.0114C39.4374 15.7536 41.2728 15.5496 42.5306 16.5559L49.7981 22.3699C50.0253 22.5472 50.2195 22.7527 50.3794 22.9781C50.5016 23.1501 50.6034 23.3333 50.6844 23.5239C50.8177 23.8378 50.8944 24.1719 50.9128 24.5097C50.9251 24.7357 50.9114 24.9638 50.8702 25.1893C50.7985 25.5857 50.6436 25.972 50.4024 26.3214L44.5936 35.0345C43.7002 36.3748 41.8892 36.737 40.5489 35.8434C39.2086 34.9499 38.8465 33.139 39.74 31.7987L41.9407 28.4977C34.3359 30.8581 28.6334 37.5441 27.7138 45.6772C27.6279 46.437 27.2573 47.0955 26.7205 47.5584L25.9594 48.4419C25.6662 48.7855 25.541 49.2157 25.5752 49.633C25.6074 50.0504 25.799 50.4553 26.1428 50.7484L27.398 51.8077C27.9659 52.2922 28.3488 52.993 28.4127 53.796C28.5404 55.4016 27.3422 56.8066 25.7366 56.9343C24.1309 57.0621 22.7259 55.8639 22.5982 54.2583C22.5344 53.455 22.8022 52.7025 23.2866 52.1347L24.3586 50.8904C24.6518 50.5465 24.7771 50.1163 24.7429 49.699C24.7107 49.2816 24.5191 48.8767 24.1753 48.5836L23.2893 47.8358C22.4883 47.3435 21.9553 46.4795 21.9029 45.5106C21.884 45.2432 21.9017 44.9815 21.952 44.7307C23.2672 34.1555 30.8681 25.5331 40.8997 22.7215L38.8866 21.111C37.6288 20.1047 37.4248 18.2693 38.4311 17.0114Z" fill="white"/>
<path d="M54.0593 67.5026L56.2602 64.2012C57.1536 62.861 56.7913 61.05 55.4511 60.1567C54.1109 59.263 52.2999 59.6252 51.4066 60.9655L45.5977 69.6784C45.3574 70.0264 45.2028 70.4111 45.1305 70.8057C45.0888 71.0344 45.0748 71.2657 45.0876 71.4949L45.0899 71.5337C45.1147 71.8971 45.2057 72.2422 45.3516 72.5569C45.4286 72.724 45.5219 72.8847 45.6313 73.0364C45.7891 73.256 45.9795 73.4564 46.2015 73.6299L53.4695 79.444C54.7272 80.4502 56.5626 80.2464 57.5689 78.9887C58.5751 77.7308 58.3713 75.8953 57.1133 74.889L55.1002 73.2785C66.148 70.1815 74.2499 60.0371 74.2499 48C74.2499 46.3891 72.9441 45.0833 71.3332 45.0833C69.7224 45.0833 68.4166 46.3891 68.4166 48C68.4166 57.1659 62.3764 64.9213 54.0593 67.5026Z" fill="white"/>
<path d="M52.6667 34.0002C53.9553 34.9667 54.2166 36.7948 53.25 38.0835L48 45.0836H53.8334C54.9382 45.0836 55.948 45.7078 56.442 46.6957C56.9361 47.6838 56.8297 48.8662 56.1667 49.7503L47.4167 61.417C46.4501 62.7055 44.622 62.9666 43.3334 62.0003C42.0447 61.0337 41.7835 59.2055 42.75 57.917L48 50.917H42.1667C41.0619 50.917 40.052 50.2928 39.5579 49.3046C39.0639 48.3165 39.1705 47.134 39.8333 46.2503L48.5834 34.5835C49.55 33.2948 51.3781 33.0337 52.6667 34.0002Z" fill="white"/>
</svg>
