<svg width="96" height="96" viewBox="0 0 96 96" fill="none" xmlns="http://www.w3.org/2000/svg">
<circle cx="48" cy="48" r="48" fill="#FF5640"/>
<path d="M47.2924 16.0038C47.7571 15.8876 48.243 15.8876 48.7073 16.0038L72.0406 21.8371C73.3467 22.1636 74.2597 23.3418 74.2497 24.6882V24.7039L74.2494 24.7433L74.2477 24.8905C74.2459 25.0184 74.2433 25.2051 74.2386 25.4448C74.2299 25.9242 74.2139 26.6163 74.1859 27.4762C74.1299 29.1948 74.0257 31.5899 73.8326 34.3004C73.4506 39.6634 72.7068 46.4766 71.2228 51.712C69.0359 59.4263 63.5286 66.4103 58.8226 71.3223C56.4356 73.8134 54.181 75.8469 52.5209 77.2597C51.6899 77.967 51.0048 78.5215 50.5226 78.9024C50.2817 79.0931 50.091 79.2404 49.9583 79.3422L49.8031 79.46L49.7596 79.4927L49.7424 79.5055C49.7424 79.5055 49.7395 79.5076 48 77.1667L46.2591 79.5067L46.2404 79.4927L46.1966 79.46L46.0415 79.3422C45.9088 79.2404 45.7183 79.0931 45.4771 78.9024C44.995 78.5215 44.3099 77.967 43.4789 77.2597C41.8189 75.8469 39.5643 73.8134 37.1774 71.3223C32.4712 66.4103 26.9639 59.4263 24.7771 51.712C23.2458 46.3098 22.5016 39.2221 22.1307 33.7755C22.1195 33.6109 22.1221 33.4485 22.1377 33.2895C22.1806 32.6173 22.4529 32.0026 22.8807 31.5274L23.9859 30.3125C24.2882 29.9767 24.4251 29.5502 24.4021 29.1321C24.3812 28.7138 24.2006 28.304 23.8648 28.0017L22.6386 26.9089C22.0839 26.4094 21.7201 25.6985 21.6779 24.894C21.5936 23.2855 22.8292 21.9132 24.4377 21.8289C26.0462 21.7446 27.4184 22.9802 27.5027 24.5887C27.5449 25.3932 27.2568 26.1383 26.7573 26.693L25.6521 27.908C25.3498 28.2438 25.213 28.6703 25.2359 29.0884C25.2568 29.5066 25.4375 29.9165 25.7732 30.2188L26.9994 31.3116C27.5541 31.8111 27.9185 32.5219 27.9607 33.3265C27.9649 33.4075 27.9658 33.488 27.9635 33.5677C28.3342 38.9193 29.0499 45.396 30.3894 50.1213C32.1807 56.4405 36.8817 62.5819 41.3894 67.2865C43.6093 69.6035 45.7131 71.501 47.2595 72.8176C47.5237 73.0422 47.7714 73.2499 48 73.4392C48.2287 73.2499 48.476 73.0422 48.7403 72.8176C50.287 71.501 52.3905 69.6035 54.6104 67.2865C59.1181 62.5819 63.8192 56.4405 65.6106 50.1213C66.9222 45.494 67.6368 39.1823 68.0139 33.8859C68.2006 31.2668 68.3015 28.9487 68.3554 27.2864L68.3668 26.9315L48 21.8398L37.0407 24.5796C35.4779 24.9703 33.8944 24.0201 33.5037 22.4574C33.113 20.8947 34.0631 19.3111 35.6259 18.9204L47.2924 16.0038Z" fill="white"/>
<path d="M46.2593 79.5067C47.2921 80.2744 48.7069 80.2753 49.7397 79.5076L48.0002 77.1667C46.2604 79.5076 46.2593 79.5067 46.2593 79.5067Z" fill="white"/>
<path d="M61.7293 34.2709C62.8682 35.41 62.8682 37.2567 61.7293 38.3957L47.1459 52.979C46.007 54.118 44.1601 54.118 43.0212 52.979L37.1878 47.1457C36.0487 46.0067 36.0487 44.1599 37.1878 43.021C38.3268 41.8819 40.1735 41.8819 41.3126 43.021L45.0836 46.7919L57.6045 34.2709C58.7435 33.1319 60.5903 33.1319 61.7293 34.2709Z" fill="white"/>
</svg>
