<svg width="51" height="50" viewBox="0 0 51 50" fill="none" xmlns="http://www.w3.org/2000/svg">
<path fill-rule="evenodd" clip-rule="evenodd" d="M17.4578 11.25C17.8508 10.7254 18.4676 10.4166 19.1227 10.4166H31.6097C32.2649 10.4166 32.8815 10.7254 33.2746 11.25L39.0748 18.9916L46.6825 20.8956C47.6091 21.1272 48.259 21.9606 48.259 22.9166V33.3333C48.259 34.4839 47.3273 35.4166 46.1779 35.4166H41.6603C40.8032 37.8441 38.4905 39.5833 35.772 39.5833C33.0536 39.5833 30.7408 37.8441 29.8838 35.4166H20.8486C19.9915 37.8441 17.6788 39.5833 14.9604 39.5833C12.2419 39.5833 9.92925 37.8441 9.07216 35.4166H4.55455C3.40517 35.4166 2.47339 34.4839 2.47339 33.3333V29.1666L2.47341 29.1597C2.47518 28.5868 2.70792 28.0687 3.08311 27.6931L3.91601 26.8679C4.14398 26.6395 4.25741 26.3406 4.25668 26.0414C4.25741 25.7423 4.14398 25.4431 3.91601 25.215L3.08311 24.3895C2.70648 24.0127 2.47339 23.4918 2.47339 22.9164C2.47339 21.766 3.40504 20.8333 4.55437 20.8333C5.70371 20.8333 6.63534 21.766 6.63534 22.9164C6.63534 23.4918 6.40263 24.0127 6.026 24.3898L5.1931 25.215C4.96513 25.4431 4.8517 25.7423 4.85243 26.0414C4.8517 26.3406 4.96513 26.6395 5.1931 26.8679L6.026 27.6931C6.15403 27.8214 6.26546 27.966 6.35674 28.1239C6.53416 28.4306 6.63572 28.7868 6.63572 29.1666V31.25H9.07216C9.92925 28.8225 12.2419 27.0833 14.9604 27.0833C17.6788 27.0833 19.9915 28.8225 20.8486 31.25H29.8838C30.7408 28.8225 33.0536 27.0833 35.772 27.0833C38.4905 27.0833 40.8032 28.8225 41.6603 31.25H44.0967V24.5433L37.3485 22.8543C36.8848 22.7383 36.4751 22.466 36.1883 22.0833L30.5691 14.5833H20.1633L14.5441 22.0833C13.8545 23.0037 12.55 23.1904 11.6305 22.5C10.711 21.8095 10.5246 20.5038 11.2143 19.5833L17.4578 11.25ZM12.8792 33.3333C12.8792 34.4839 13.811 35.4166 14.9604 35.4166C16.1098 35.4166 17.0415 34.4839 17.0415 33.3333C17.0415 32.1827 16.1098 31.25 14.9604 31.25C13.811 31.25 12.8792 32.1827 12.8792 33.3333ZM37.8532 33.3333C37.8532 32.1827 36.9215 31.25 35.772 31.25C34.6226 31.25 33.6909 32.1827 33.6909 33.3333C33.6909 34.4839 34.6226 35.4166 35.772 35.4166C36.9215 35.4166 37.8532 34.4839 37.8532 33.3333Z" fill="#FF5640"/>
</svg>
