<svg width="50" height="50" viewBox="0 0 50 50" fill="none" xmlns="http://www.w3.org/2000/svg">
<g clip-path="url(#clip0_68_453)">
<path d="M16.7734 2.62634C17.4341 1.80275 18.6393 1.66922 19.4651 2.3281L24.237 6.13484C24.3862 6.25096 24.5137 6.38553 24.6187 6.5331C24.6989 6.64575 24.7658 6.76566 24.819 6.89045C24.9065 7.09599 24.9569 7.31473 24.969 7.53595C24.977 7.68392 24.968 7.8333 24.941 7.98094C24.8939 8.24045 24.7922 8.49341 24.6338 8.72214L20.8197 14.4272C20.2331 15.3047 19.044 15.5419 18.164 14.9568C17.2839 14.3718 17.0461 13.1861 17.6328 12.3085L19.0778 10.1471C14.0845 11.6926 10.3401 16.0703 9.73634 21.3956C9.67994 21.8931 9.43663 22.3243 9.08415 22.6274L8.58439 23.2058C8.3919 23.4308 8.30965 23.7125 8.33211 23.9857C8.35324 24.259 8.47906 24.5241 8.70479 24.716L9.52895 25.4096C9.9019 25.7268 10.1533 26.1857 10.1952 26.7115C10.2791 27.7628 9.49238 28.6827 8.43809 28.7664C7.38379 28.85 6.46123 28.0655 6.37743 27.0142C6.3355 26.4882 6.51139 25.9955 6.82941 25.6237L7.53332 24.809C7.72581 24.5839 7.80806 24.3022 7.7856 24.0289C7.76448 23.7556 7.63865 23.4906 7.41292 23.2986L6.83117 22.809C6.30525 22.4866 5.9553 21.921 5.92088 21.2865C5.90844 21.1114 5.9201 20.9401 5.95308 20.7759C6.81665 13.8516 11.8075 8.20603 18.3943 6.36506L17.0725 5.31059C16.2466 4.65172 16.1126 3.44993 16.7734 2.62634Z" fill="#FF5640"/>
<path d="M27.0352 35.6861L28.4804 33.5245C29.067 32.647 28.8291 31.4612 27.9491 30.8763C27.0691 30.2911 25.88 30.5283 25.2934 31.4058L21.4793 37.1108C21.3215 37.3386 21.22 37.5905 21.1725 37.8489C21.1451 37.9986 21.1359 38.15 21.1444 38.3001L21.1459 38.3255C21.1622 38.5635 21.2219 38.7894 21.3177 38.9955C21.3682 39.1049 21.4295 39.2101 21.5013 39.3094C21.605 39.4532 21.73 39.5844 21.8757 39.6981L26.648 43.5049C27.4738 44.1637 28.679 44.0303 29.3397 43.2068C30.0004 42.3831 29.8665 41.1813 29.0405 40.5225L27.7187 39.4679C34.9727 37.4402 40.2925 30.798 40.2925 22.9166C40.2925 21.8618 39.4351 21.0068 38.3774 21.0068C37.3197 21.0068 36.4623 21.8618 36.4623 22.9166C36.4623 28.9181 32.4963 33.996 27.0352 35.6861Z" fill="#FF5640"/>
<path d="M26.1208 13.75C26.9669 14.3828 27.1385 15.5798 26.5038 16.4236L23.0566 21.007H26.8868C27.6123 21.007 28.2753 21.4157 28.5997 22.0625C28.9241 22.7095 28.8542 23.4837 28.4189 24.0626L22.6736 31.7014C22.0389 32.5452 20.8385 32.7161 19.9924 32.0834C19.1463 31.4505 18.9748 30.2535 19.6094 29.4098L23.0566 24.8264H19.2264C18.501 24.8264 17.8379 24.4178 17.5135 23.7707C17.1891 23.1237 17.2591 22.3495 17.6943 21.7709L23.4396 14.1319C24.0743 13.2881 25.2747 13.1172 26.1208 13.75Z" fill="#FF5640"/>
</g>
<defs>
<clipPath id="clip0_68_453">
<rect width="49.948" height="50" fill="white" transform="translate(0.0270996 -0.00012207)"/>
</clipPath>
</defs>
</svg>
