<svg width="51" height="50" viewBox="0 0 51 50" fill="none" xmlns="http://www.w3.org/2000/svg">
<g clip-path="url(#clip0_68_475)">
<path fill-rule="evenodd" clip-rule="evenodd" d="M26.4369 2.34554C27.0678 1.99598 27.835 1.99598 28.4659 2.34554L47.2687 12.7622C47.9321 13.1296 48.3434 13.8268 48.3434 14.5834V22.9167C48.3434 24.0673 47.4081 25 46.2542 25H44.165V35.4167H46.2542C47.213 35.4167 48.0486 36.0673 48.2812 36.9948L50.3704 45.3282C50.5262 45.9505 50.386 46.6098 49.9901 47.1155C49.5942 47.6211 48.9867 47.9167 48.3434 47.9167H31.6298C31.067 47.9167 30.556 47.6946 30.1803 47.3338L30.1521 47.3063L29.3246 46.4725C29.0956 46.2444 28.7956 46.1309 28.4958 46.1315C28.1958 46.1309 27.8958 46.2444 27.667 46.4725L26.8393 47.3063C26.4613 47.6834 25.939 47.9163 25.362 47.9163C24.2084 47.9163 23.273 46.9838 23.273 45.8332C23.273 44.6828 24.2084 43.75 25.362 43.75C25.939 43.75 26.4613 43.9834 26.8393 44.3605L27.667 45.1942C27.8958 45.4223 28.1958 45.5359 28.4958 45.5353C28.7956 45.5359 29.0956 45.4223 29.3246 45.1942L30.1521 44.3605L30.173 44.34L30.1895 44.3242C30.5643 43.9684 31.0716 43.75 31.6298 43.75H45.6676L44.623 39.5834H10.2798L9.23524 43.75H14.9162C16.0701 43.75 17.0054 44.6828 17.0054 45.8334C17.0054 46.984 16.0701 47.9167 14.9162 47.9167H6.55943C5.91608 47.9167 5.30863 47.6211 4.9127 47.1155C4.5168 46.6098 4.37658 45.9505 4.53262 45.3282L6.62182 36.9948C6.85432 36.0673 7.68996 35.4167 8.64863 35.4167H10.7378V25H8.64861C7.49479 25 6.55941 24.0673 6.55941 22.9167V14.5834C6.55941 14.0626 6.75101 13.5865 7.06774 13.2213C7.14224 13.1353 7.22405 13.0551 7.31259 12.9816C7.42286 12.8901 7.54274 12.8096 7.67047 12.742L26.4369 2.34554ZM10.7378 16.6667V20.8334H44.165V16.6667H10.7378ZM38.1918 12.5H16.7111L27.4514 6.54996L38.1918 12.5ZM39.9866 35.4167V25H35.8082V35.4167H39.9866ZM31.6298 35.4167V25H23.273V35.4167H31.6298ZM19.0946 35.4167V25H14.9162V35.4167H19.0946Z" fill="#FF5640"/>
</g>
<defs>
<clipPath id="clip0_68_475">
<rect width="49.948" height="50" fill="white" transform="translate(0.661621)"/>
</clipPath>
</defs>
</svg>
