<svg width="51" height="50" viewBox="0 0 51 50" fill="none" xmlns="http://www.w3.org/2000/svg">
<g clip-path="url(#clip0_68_444)">
<path fill-rule="evenodd" clip-rule="evenodd" d="M7.34838 14.5834C10.384 7.28008 17.326 2.08337 25.5107 2.08337C33.6956 2.08337 40.6376 7.28008 43.6732 14.5834H44.3136C45.4674 14.5834 46.4028 15.5161 46.4028 16.6667V25C46.4028 26.1507 45.4674 27.0834 44.3136 27.0834H42.2244V35.4167H44.3136C45.2723 35.4167 46.108 36.0673 46.3405 36.9948L48.4297 45.3282C48.5856 45.9505 48.4454 46.6098 48.0495 47.1155C47.6536 47.6211 47.046 47.9167 46.4028 47.9167H29.6891C29.1257 47.9167 28.6143 47.6942 28.2384 47.3325L28.2115 47.3063L27.3839 46.4725C27.1549 46.2444 26.8549 46.1309 26.5551 46.1315C26.2551 46.1309 25.9551 46.2444 25.7264 46.4725L24.8986 47.3063C24.5207 47.6834 23.9984 47.9163 23.4213 47.9163C22.2677 47.9163 21.3323 46.9838 21.3323 45.8332C21.3323 44.6828 22.2677 43.75 23.4213 43.75C23.9984 43.75 24.5207 43.9834 24.8986 44.3605L25.7264 45.1942C25.9551 45.4223 26.2551 45.5359 26.5551 45.5353C26.8549 45.5359 27.1549 45.4223 27.3839 45.1942L28.2115 44.3605L28.2384 44.3342C28.6143 43.9725 29.1257 43.75 29.6891 43.75H43.7269L42.6823 39.5834H8.33917L7.29457 43.75H12.9756C14.1294 43.75 15.0648 44.6828 15.0648 45.8334C15.0648 46.984 14.1294 47.9167 12.9756 47.9167H4.61876C3.97541 47.9167 3.36795 47.6211 2.97203 47.1155C2.57613 46.6098 2.4359 45.9505 2.59194 45.3282L4.68114 36.9948C4.91365 36.0673 5.74929 35.4167 6.70796 35.4167H8.79714V27.0834H6.70794C5.55412 27.0834 4.61874 26.1507 4.61874 25V16.6667C4.61874 15.5161 5.55412 14.5834 6.70794 14.5834H7.34838ZM11.9687 14.5834C14.6918 9.56229 19.775 6.25004 25.5107 6.25004C31.2464 6.25004 36.3297 9.56229 39.0527 14.5834H11.9687ZM38.046 27.0834V35.4167H33.8676V27.0834H38.046ZM29.6891 27.0834V35.4167H21.3323V27.0834H29.6891ZM17.1539 27.0834V35.4167H12.9755V27.0834H17.1539ZM42.2244 22.9167V18.75H8.79714V22.9167H42.2244Z" fill="#FF5640"/>
</g>
<defs>
<clipPath id="clip0_68_444">
<rect width="49.948" height="50" fill="white" transform="translate(0.392212)"/>
</clipPath>
</defs>
</svg>
