<svg width="20" height="19" viewBox="0 0 20 19" fill="none" xmlns="http://www.w3.org/2000/svg">
<path d="M10.0022 4.39798C7.16453 4.39798 4.87563 6.46454 4.87563 9.02659C4.87563 11.5886 7.16453 13.6552 10.0022 13.6552C12.8399 13.6552 15.1288 11.5886 15.1288 9.02659C15.1288 6.46454 12.8399 4.39798 10.0022 4.39798ZM10.0022 12.0358C8.16843 12.0358 6.66927 10.6863 6.66927 9.02659C6.66927 7.3669 8.16397 6.01739 10.0022 6.01739C11.8405 6.01739 13.3352 7.3669 13.3352 9.02659C13.3352 10.6863 11.836 12.0358 10.0022 12.0358ZM16.5343 4.20865C16.5343 4.80888 15.9989 5.28825 15.3385 5.28825C14.6737 5.28825 14.1428 4.80485 14.1428 4.20865C14.1428 3.61245 14.6782 3.12904 15.3385 3.12904C15.9989 3.12904 16.5343 3.61245 16.5343 4.20865ZM19.9297 5.30437C19.8539 3.85818 19.488 2.57716 18.3146 1.52172C17.1456 0.466285 15.7267 0.135958 14.1249 0.063447C12.4741 -0.021149 7.52593 -0.021149 5.87507 0.063447C4.27775 0.131929 2.8589 0.462256 1.68544 1.51769C0.511991 2.57313 0.150586 3.85415 0.0702733 5.30034C-0.0234244 6.79084 -0.0234244 11.2583 0.0702733 12.7488C0.146124 14.195 0.511991 15.476 1.68544 16.5315C2.8589 17.5869 4.27328 17.9172 5.87507 17.9897C7.52593 18.0743 12.4741 18.0743 14.1249 17.9897C15.7267 17.9212 17.1456 17.5909 18.3146 16.5315C19.4835 15.476 19.8494 14.195 19.9297 12.7488C20.0234 11.2583 20.0234 6.79487 19.9297 5.30437ZM17.797 14.3481C17.449 15.1376 16.7752 15.7459 15.8963 16.0642C14.58 16.5355 11.4568 16.4267 10.0022 16.4267C8.54769 16.4267 5.41997 16.5315 4.1082 16.0642C3.23369 15.75 2.55996 15.1417 2.20747 14.3481C1.68544 13.1597 1.80591 10.3398 1.80591 9.02659C1.80591 7.71334 1.68991 4.88944 2.20747 3.7051C2.55549 2.91554 3.22922 2.30725 4.1082 1.98901C5.42443 1.51769 8.54769 1.62646 10.0022 1.62646C11.4568 1.62646 14.5845 1.52172 15.8963 1.98901C16.7708 2.30323 17.4445 2.91151 17.797 3.7051C18.319 4.89347 18.1985 7.71334 18.1985 9.02659C18.1985 10.3398 18.319 13.1637 17.797 14.3481Z" fill="white"/>
</svg>
