<svg width="51" height="50" viewBox="0 0 51 50" fill="none" xmlns="http://www.w3.org/2000/svg">
<g clip-path="url(#clip0_68_484)">
<path d="M25.2736 2.14558C25.6065 2.06264 25.9545 2.06264 26.2871 2.14558L43.0007 6.31225C43.9363 6.5455 44.5902 7.38706 44.5831 8.34875V8.36L44.5829 8.38808L44.5816 8.49323C44.5804 8.58462 44.5785 8.71794 44.5751 8.88917C44.5689 9.23158 44.5574 9.72596 44.5373 10.3402C44.4972 11.5677 44.4226 13.2785 44.2843 15.2146C44.0106 19.0453 43.4779 23.9119 42.4149 27.6515C40.8484 33.1617 36.9036 38.1503 33.5327 41.6588C31.8229 43.4382 30.2079 44.8907 29.0187 45.8998C28.4235 46.405 27.9328 46.8011 27.5874 47.0732C27.4149 47.2094 27.2782 47.3146 27.1832 47.3873L27.072 47.4715L27.0409 47.4948L27.0286 47.504C27.0286 47.504 27.0265 47.5055 25.7805 45.8334L24.5334 47.5048L24.5201 47.4948L24.4887 47.4715L24.3776 47.3873C24.2825 47.3146 24.1461 47.2094 23.9733 47.0732C23.628 46.8011 23.1372 46.405 22.542 45.8998C21.353 44.8907 19.738 43.4382 18.0282 41.6588C14.6572 38.1503 10.7124 33.1617 9.14599 27.6515C8.04908 23.7928 7.51604 18.7301 7.25032 14.8397C7.24229 14.7221 7.24422 14.6061 7.25537 14.4925C7.28606 14.0124 7.48113 13.5733 7.78758 13.2339L8.57924 12.3661C8.79578 12.1263 8.89381 11.8216 8.87737 11.523C8.86241 11.2242 8.733 10.9315 8.49249 10.7155L7.61419 9.93496C7.21685 9.57819 6.95622 9.07039 6.92601 8.49575C6.86563 7.34679 7.75066 6.36664 8.90283 6.30642C10.055 6.24621 11.0379 7.12875 11.0983 8.27769C11.1285 8.85235 10.9222 9.38454 10.5644 9.78077L9.77273 10.6486C9.55619 10.8884 9.45818 11.1931 9.47463 11.4917C9.48958 11.7905 9.61899 12.0832 9.85948 12.2992L10.7378 13.0797C11.1351 13.4365 11.3961 13.9443 11.4263 14.5189C11.4294 14.5768 11.43 14.6343 11.4283 14.6912C11.6939 18.5138 12.2065 23.14 13.166 26.5153C14.4491 31.029 17.8165 35.4157 21.0453 38.7761C22.6354 40.4311 24.1423 41.7865 25.25 42.7269C25.4393 42.8873 25.6167 43.0357 25.7805 43.1709C25.9443 43.0357 26.1214 42.8873 26.3107 42.7269C27.4186 41.7865 28.9254 40.4311 30.5155 38.7761C33.7443 35.4157 37.1117 31.029 38.3949 26.5153C39.3344 23.21 39.8462 18.7017 40.1164 14.9185C40.2501 13.0477 40.3224 11.3919 40.361 10.2046L40.3692 9.95108L25.7805 6.31417L17.9303 8.27117C16.8109 8.55023 15.6766 7.87156 15.3968 6.75533C15.1169 5.63908 15.7975 4.50798 16.9169 4.22892L25.2736 2.14558Z" fill="#FF5640"/>
<path d="M24.5334 47.5048C25.2732 48.0532 26.2867 48.0538 27.0265 47.5055L25.7805 45.8334C24.5343 47.5055 24.5334 47.5048 24.5334 47.5048Z" fill="#FF5640"/>
<path d="M35.6145 15.1936C36.4303 16.0072 36.4303 17.3262 35.6145 18.1399L25.1685 28.5565C24.3527 29.37 23.0298 29.37 22.214 28.5565L18.0355 24.3898C17.2196 23.5763 17.2196 22.2571 18.0355 21.4436C18.8514 20.63 20.1742 20.63 20.9901 21.4436L23.6912 24.1371L32.66 15.1936C33.4758 14.38 34.7987 14.38 35.6145 15.1936Z" fill="#FF5640"/>
</g>
<defs>
<clipPath id="clip0_68_484">
<rect width="49.948" height="50" fill="white" transform="translate(0.661621)"/>
</clipPath>
</defs>
</svg>
