<svg width="20" height="19" viewBox="0 0 20 19" fill="none" xmlns="http://www.w3.org/2000/svg">
<path d="M4.47679 18.0532H0.330357V6H4.47679V18.0532ZM2.40134 4.35583C1.07545 4.35583 0 3.36449 0 2.16764C9.49017e-09 1.59275 0.252998 1.0414 0.703336 0.634887C1.15367 0.228376 1.76446 0 2.40134 0C3.03821 0 3.649 0.228376 4.09934 0.634887C4.54968 1.0414 4.80268 1.59275 4.80268 2.16764C4.80268 3.36449 3.72679 4.35583 2.40134 4.35583ZM19.9955 18.0532H15.858V12.1858C15.858 10.7874 15.8268 8.99415 13.7022 8.99415C11.5464 8.99415 11.2161 10.5134 11.2161 12.085V18.0532H7.07411V6H11.0509V7.64416H11.1089C11.6625 6.69715 13.0147 5.69776 15.0321 5.69776C19.2286 5.69776 20 8.19222 20 11.4322V18.0532H19.9955Z" fill="white"/>
</svg>
