<svg width="50" height="50" viewBox="0 0 50 50" fill="none" xmlns="http://www.w3.org/2000/svg">
<g clip-path="url(#clip0_68_464)">
<path d="M5.9248 6.25C4.77096 6.25 3.83559 7.18275 3.83559 8.33333V14.5833C3.83559 15.7339 4.77096 16.6667 5.9248 16.6667C7.07862 16.6667 8.014 15.7339 8.014 14.5833V10.4167H45.6195V35.4167H8.014V31.25C8.014 30.6598 7.76796 30.1271 7.3726 29.7481L6.56529 28.9513C6.33646 28.7229 6.22257 28.4238 6.22333 28.1248C6.22257 27.8256 6.33646 27.5265 6.56529 27.2983L7.40141 26.4729C7.77949 26.096 8.01348 25.5752 8.01348 24.9998C8.01348 23.8494 7.07823 22.9167 5.92447 22.9167C4.7707 22.9167 3.83545 23.8494 3.83545 24.9998C3.83545 25.5752 4.06907 26.096 4.44715 26.4729L5.28327 27.2983C5.51212 27.5265 5.62598 27.8256 5.62525 28.1248C5.62598 28.4238 5.51212 28.7229 5.28327 28.9513L4.44715 29.7765C4.06907 30.1535 3.83545 30.6742 3.83545 31.2496L3.83559 31.2742V37.5C3.83559 38.6506 4.77096 39.5833 5.9248 39.5833H47.7087C48.8626 39.5833 49.7979 38.6506 49.7979 37.5V8.33333C49.7979 7.18275 48.8626 6.25 47.7087 6.25H5.9248Z" fill="#FF5640"/>
<path d="M12.1924 43.75C12.1924 42.5993 13.1277 41.6666 14.2816 41.6666H39.3519C40.5058 41.6666 41.4411 42.5993 41.4411 43.75C41.4411 44.9006 40.5058 45.8333 39.3519 45.8333H14.2816C13.1277 45.8333 12.1924 44.9006 12.1924 43.75Z" fill="#FF5640"/>
<path fill-rule="evenodd" clip-rule="evenodd" d="M23.7133 14.8803C23.068 14.4941 22.2642 14.484 21.6092 14.8538C20.9542 15.2236 20.5493 15.9161 20.5493 16.6667V29.1667C20.5493 29.9173 20.9542 30.6098 21.6092 30.9796C22.2642 31.3494 23.068 31.3394 23.7133 30.9532L34.1593 24.7032C34.7886 24.3267 35.1736 23.6486 35.1736 22.9167C35.1736 22.1848 34.7886 21.5067 34.1593 21.1303L23.7133 14.8803ZM29.0238 22.9167L24.7276 25.4871V20.3463L29.0238 22.9167Z" fill="#FF5640"/>
</g>
<defs>
<clipPath id="clip0_68_464">
<rect width="49.948" height="50" fill="white" transform="translate(0.0270996)"/>
</clipPath>
</defs>
</svg>
