<svg width="70" height="70" viewBox="0 0 70 70" fill="none" xmlns="http://www.w3.org/2000/svg">
<path d="M16.1279 29.6815C15.3626 29.6815 14.6283 29.7983 13.8974 29.9046C14.1342 29.1086 14.3779 28.2987 14.769 27.5712C15.1602 26.5144 15.771 25.5983 16.3783 24.6752C16.8861 23.6767 17.7817 23.0007 18.4405 22.1462C19.1302 21.3159 20.0705 20.7634 20.8151 20.0737C21.546 19.3531 22.5033 18.9929 23.2651 18.485C24.0611 18.0286 24.7543 17.5242 25.4955 17.284L27.3449 16.5223L28.9714 15.8463L27.3073 9.19629L25.2587 9.6904C24.6033 9.85511 23.8038 10.0473 22.8945 10.2772C21.9646 10.4487 20.9729 10.9188 19.868 11.3478C18.7768 11.835 17.5141 12.1644 16.3405 12.9468C15.1602 13.6948 13.7979 14.3193 12.597 15.3213C11.4337 16.3541 10.0303 17.2497 8.99398 18.5639C7.86163 19.7924 6.74301 21.0825 5.87486 22.5512C4.86947 23.9512 4.18663 25.4884 3.46604 27.0086C2.81408 28.5286 2.28908 30.083 1.86016 31.5928C1.04692 34.6193 0.683198 37.4949 0.542512 39.9552C0.425845 42.4189 0.494472 44.4674 0.63859 45.9497C0.690061 46.6497 0.78614 47.3292 0.854767 47.7992L0.940551 48.3757L1.02976 48.3552C1.64007 51.206 3.04502 53.8259 5.08209 55.9116C7.11917 57.9974 9.70511 59.4639 12.5408 60.1413C15.3765 60.8188 18.346 60.6796 21.1059 59.7398C23.8657 58.8001 26.3032 57.0983 28.1363 54.8311C29.9693 52.5639 31.1231 49.8241 31.464 46.9287C31.805 44.0332 31.3193 41.1004 30.0631 38.4694C28.8068 35.8384 26.8314 33.6169 24.3653 32.0617C21.8993 30.5066 19.0433 29.6814 16.1279 29.6815ZM53.8729 29.6815C53.1077 29.6815 52.3734 29.7983 51.6426 29.9046C51.8793 29.1086 52.1229 28.2987 52.5141 27.5712C52.9052 26.5144 53.5161 25.5983 54.1234 24.6752C54.6313 23.6767 55.5268 23.0007 56.1857 22.1462C56.8754 21.3159 57.8155 20.7634 58.5601 20.0737C59.291 19.3531 60.2484 18.9929 61.0102 18.485C61.8063 18.0286 62.4994 17.5242 63.2405 17.284L65.0901 16.5223L66.7166 15.8463L65.0523 9.19629L63.0038 9.6904C62.3484 9.85511 61.5489 10.0473 60.6396 10.2772C59.7097 10.4487 58.718 10.9188 57.6132 11.3478C56.5254 11.8384 55.2592 12.1644 54.0857 12.9502C52.9052 13.6982 51.543 14.3228 50.342 15.3247C49.1788 16.3576 47.7754 17.2532 46.7391 18.5639C45.6067 19.7924 44.4882 21.0825 43.6199 22.5512C42.6146 23.9512 41.9317 25.4884 41.2111 27.0086C40.5592 28.5286 40.0342 30.083 39.6052 31.5928C38.792 34.6193 38.4283 37.4949 38.2876 39.9552C38.171 42.4189 38.2396 44.4674 38.3837 45.9497C38.4352 46.6497 38.5313 47.3292 38.5999 47.7992L38.6857 48.3757L38.7749 48.3552C39.3852 51.206 40.7901 53.8259 42.8272 55.9116C44.8643 57.9974 47.4502 59.4639 50.2859 60.1413C53.1215 60.8188 56.0911 60.6796 58.851 59.7398C61.6109 58.8001 64.0483 57.0983 65.8814 54.8311C67.7145 52.5639 68.8681 49.8241 69.2092 46.9287C69.5501 44.0332 69.0644 41.1004 67.8081 38.4694C66.552 35.8384 64.5765 33.6169 62.1104 32.0617C59.6444 30.5066 56.7884 29.6814 53.8729 29.6815Z" fill="#FF5640"/>
</svg>
