<svg width="40" height="40" viewBox="0 0 40 40" fill="none" xmlns="http://www.w3.org/2000/svg">
<path d="M20 20C22.7614 20 25 17.7614 25 15C25 12.2386 22.7614 10 20 10C17.2386 10 15 12.2386 15 15C15 17.7614 17.2386 20 20 20Z" stroke="#FF5640" stroke-width="3.75"/>
<path d="M29.9485 33.3333C29.6833 28.5142 28.2078 25 19.9998 25C11.792 25 10.3165 28.5142 10.0513 33.3333" stroke="#FF5640" stroke-width="3.75" stroke-linecap="round"/>
<path d="M11.6666 5.56301C14.118 4.14493 16.9643 3.33331 19.9999 3.33331C29.2046 3.33331 36.6666 10.7952 36.6666 20C36.6666 29.2046 29.2046 36.6666 19.9999 36.6666C10.7952 36.6666 3.33325 29.2046 3.33325 20C3.33325 16.9643 4.14487 14.1181 5.56295 11.6666" stroke="#FF5640" stroke-width="3.75" stroke-linecap="round"/>
</svg>
