<svg width="20" height="20" viewBox="0 0 20 20" fill="none" xmlns="http://www.w3.org/2000/svg">
<path d="M19.5667 5.08622C19.3486 4.26503 18.7061 3.6183 17.8902 3.39882C16.4114 3 10.4815 3 10.4815 3C10.4815 3 4.55163 3 3.07278 3.39882C2.25691 3.61833 1.61434 4.26503 1.39625 5.08622C1 6.57465 1 9.68014 1 9.68014C1 9.68014 1 12.7856 1.39625 14.2741C1.61434 15.0952 2.25691 15.715 3.07278 15.9345C4.55163 16.3333 10.4815 16.3333 10.4815 16.3333C10.4815 16.3333 16.4114 16.3333 17.8902 15.9345C18.7061 15.715 19.3486 15.0952 19.5667 14.2741C19.963 12.7856 19.963 9.68014 19.963 9.68014C19.963 9.68014 19.963 6.57465 19.5667 5.08622ZM8.54208 12.4997V6.86059L13.4983 9.68021L8.54208 12.4997Z" fill="white"/>
</svg>
